<svg xmlns="http://www.w3.org/2000/svg" viewBox="0 0 200 200"
     role="img" aria-label="Paraíso de Aves watermark">
  <!-- Semi-transparent white mark for photo overlay. Embed at opacity 0.15–0.25 -->
  <circle cx="100" cy="100" r="97" fill="none" stroke="white" stroke-width="1.5"/>
  <circle cx="100" cy="100" r="86" fill="none" stroke="white"
          stroke-width="0.5" stroke-dasharray="2 3" opacity="0.7"/>
  <path d="M 31 68 A 76 76 0 0 1 169 68"
        fill="none" stroke="white" stroke-width="5" stroke-linecap="round"/>
  <path d="M 97 148 C 92 112 95 74 100 36 C 105 74 108 112 103 148 Z" fill="white"/>
  <path d="M 97 148 C 92 112 95 74 100 36 C 105 74 108 112 103 148 Z"
        fill="white" opacity="0.70" transform="rotate(-27 100 148)"/>
  <path d="M 97 148 C 92 112 95 74 100 36 C 105 74 108 112 103 148 Z"
        fill="white" opacity="0.70" transform="rotate(27 100 148)"/>
  <circle cx="100" cy="148" r="2.5" fill="white"/>
  <path d="M 40 128 C 22 112 24 90 39 80 C 48 92 50 112 40 128 Z"
        fill="none" stroke="white" stroke-width="0.8" opacity="0.8"/>
  <path d="M 160 128 C 178 112 176 90 161 80 C 152 92 150 112 160 128 Z"
        fill="none" stroke="white" stroke-width="0.8" opacity="0.8"/>
  <text x="100" y="175" text-anchor="middle"
        font-family="'Palatino Linotype',Palatino,Georgia,serif"
        font-size="9" letter-spacing="2.5" fill="white" opacity="0.90">PARAÍSO · DE · AVES</text>
</svg>
